/* XPM */
static char *_c6fa80532c949f6ebe0f6c50b200896Pu7U8Qy4n75ekRHR[] = {
/* columns rows colors chars-per-pixel */
"12 12 9 1 ",
"  c None",
". c #265C42",
"X c #BE4A2F",
"o c #F77622",
"O c #3E8948",
"+ c #4DA76F",
"@ c #63C74D",
"# c #FEAE34",
"$ c #FEE761",
/* pixels */
"  +++       ",
" O@@.       ",
"+@O@.XXX    ",
"+@@@O.$$X   ",
"+..OO##$oX  ",
"  X.###oooX ",
"  X###ooooX ",
"  X##ooooooX",
"   XoooooooX",
"    XooooooX",
"     XXooooX",
"       XXXXX"
};
