/* XPM */
static char *_5ed01ee02154031904402d406a3adec1yge26K13Xe2Ykht[] = {
/* columns rows colors chars-per-pixel */
"16 26 40 1 ",
"  c None",
". c #46465E",
"X c #4D4C5E",
"o c #5F5F70",
"O c #565972",
"+ c #58586B",
"@ c #4E4F68",
"# c #49485C",
"$ c #4F4F63",
"% c #B35E3F",
"& c #4B4C64",
"* c #464558",
"= c #474860",
"- c #404057",
"; c #B16267",
": c #3A3A50",
"> c #434152",
", c #715A69",
"< c #635262",
"1 c #6C5A67",
"2 c #3E3E54",
"3 c #414158",
"4 c #46475D",
"5 c #43445B",
"6 c #4A4B61",
"7 c #46465E",
"8 c #565972",
"9 c #5D585F",
"0 c #716B6E",
"q c #555157",
"w c #3A3A50",
"e c #B59E95",
"r c #A5948F",
"t c #FFCBB0",
"y c #F6AE9F",
"u c #6C6E85",
"i c #E19B9B",
"p c #C2B8D5",
"a c #D8D0E0",
"s c white",
/* pixels */
"                ",
"                ",
"  .X7777788oO   ",
" .X799000008+O  ",
" .79900000998@  ",
" #79900099997$. ",
" 7q99009999997. ",
" wqq9999999997.%",
" wqqq999999997.%",
" wqqqq9eeer997.%",
" wqqqqqttttty7&%",
" 7qqqqrtttttt8& ",
" *7qqytttttwt7= ",
" -wqqyyttttuiw-;",
" :>wiyyytyyyw,:;",
"  :<wwwww7771:  ",
"   :w8w887pw2  :",
"   :w8wuu7aw:  :",
"   :w87tt87w:  :",
"   :w87yt8uw:  :",
"   :3ww77ww4:   ",
"    :w8888w:    ",
"    :wuuuw5:    ",
"    :6www6:     ",
"     :::::      ",
"                "
};
