/* XPM */
static char *_821560c7d3f4d9ae49a66b173a98f95VatE31hZ4VI39qux[] = {
/* columns rows colors chars-per-pixel */
"16 26 33 1 ",
"  c None",
". c #565972",
"X c #5F5F70",
"o c #4D4C5E",
"O c #46465E",
"+ c #4E4F68",
"@ c #4D4D61",
"# c #49485C",
"$ c #404057",
"% c #3E3E54",
"& c #3A3A50",
"* c #424259",
"= c #746772",
"- c #47475F",
"; c #4A4A63",
": c #6E616B",
"> c #837279",
", c #3C3C52",
"< c #4A4B61",
"1 c #565972",
"2 c #46465E",
"3 c #716B6E",
"4 c #5D585F",
"5 c #555157",
"6 c #3A3A50",
"7 c #C9A495",
"8 c #FFCBB0",
"9 c #F6AE9F",
"0 c #6C6E85",
"q c #E19B9B",
"w c #C2B8D5",
"e c #D8D0E0",
"r c white",
/* pixels */
"                ",
"                ",
"  .X11222222oO  ",
" .X1333333442oO ",
" +133333333442O ",
"O@233333333442#O",
"$25433333344452$",
"%65444444444456%",
"&65444444444456&",
"&65478888887456&",
"%65488888888456%",
"*29788888888792*",
"O28886888868882O",
"O=2980q99q0892=O",
"&-299999999992;O",
"&61222222222212O",
":60161wwww16102=",
"2860202ee2020282",
"2896122222216982",
">2660002w000662>",
"O$,6116666116,$O",
"  &6661221666&  ",
"  &6006--6006&  ",
"  &<66<&&<66<&  ",
"   &&&&  &&&&   ",
"                "
};
