/* XPM */
static char *_b5cb2969b4d43ab8d72ed3a1b18de42bjZatwLPSwMt1mgK[] = {
/* columns rows colors chars-per-pixel */
"16 26 31 1 ",
"  c None",
". c #565972",
"X c #5F5F70",
"o c #4D4C5E",
"O c #46465E",
"+ c #4E4F68",
"@ c #4D4D61",
"# c #49485C",
"$ c #404057",
"% c #3E3E54",
"& c #3A3A50",
"* c #4B495B",
"= c #B16267",
"- c #47475B",
"; c #4A4B61",
": c #4E4F66",
"> c #6B5E68",
", c #746772",
"< c #7B6A70",
"1 c #7F6E74",
"2 c #43435A",
"3 c #565972",
"4 c #46465E",
"5 c #716B6E",
"6 c #5D585F",
"7 c #555157",
"8 c #3A3A50",
"9 c #6C6E85",
"0 c #FFCBB0",
"q c #F6AE9F",
"w c white",
/* pixels */
"                ",
"                ",
"  .X33444444oO  ",
" .X3555555664oO ",
" +355555555664O ",
"O@455555555664#O",
"$47655555566674$",
"%87666666666678%",
"&87666666666678&",
"&87766666666778&",
"%87777777777778%",
"$47777777777774$",
"O*477777777774*O",
"=$-8777777778-$ ",
"&;838888888838:O",
"&89933333333994O",
">89999999999994,",
"8088999999998804",
"80q8399999938q04",
"<888433333348881",
"&&&8388888838&&&",
"  &8334444338&  ",
"  &8998228998&  ",
"  &;88;&&;88;&  ",
"   &&&&  &&&&   ",
"                "
};
