/* XPM */
static char *_60365c94371420d971808085e61259bhApTA1TZA8zda36K[] = {
/* columns rows colors chars-per-pixel */
"16 26 41 1 ",
"  c None",
". c #565972",
"X c #5F5F70",
"o c #4D4C5E",
"O c #46465E",
"+ c #58586B",
"@ c #4E4F68",
"# c #4F4F63",
"$ c #49485C",
"% c #404057",
"& c #B35E3F",
"* c #3E3E54",
"= c #3A3A50",
"- c #4B4C64",
"; c #474860",
": c #464558",
"> c #B16267",
", c #715A69",
"< c #434152",
"1 c #6C5A67",
"2 c #635262",
"3 c #262639",
"4 c #46475D",
"5 c #414158",
"6 c #43445B",
"7 c #4A4B61",
"8 c #565972",
"9 c #46465E",
"0 c #716B6E",
"q c #5D585F",
"w c #555157",
"e c #3A3A50",
"r c #B59E95",
"t c #F6AE9F",
"y c #FFCBB0",
"u c #C9A495",
"i c #E19B9B",
"p c #6C6E85",
"a c #C2B8D5",
"s c #D8D0E0",
"d c white",
/* pixels */
"                ",
"                ",
"   .X8899999oO  ",
"  .+800000qq9oO ",
"  @8qq00000qq9O ",
" O#9qqqq000qq9$O",
" O9qqqqqq00qqw9%",
"&O9qqqqqqqqqwwe*",
"&O9qqqqqqqqwwwe=",
"&O9qqqrrqqwwwwe=",
"&-9tyyyyywwwwwe*",
" -8yyyyyyuwwww9%",
" ;9yeyyyyytww9:O",
">%eipyyyyttwwe% ",
">=,etttytttie<= ",
"  =1999eeeee2=3 ",
"O  *ea988e8e=  O",
"O  =es9ppe8e=  O",
"O  =e98yy98e=  O",
"O  =ep8yt98e=  O",
"   =4ee99ee5=   ",
"    =e8888e=    ",
"    =6epppe=    ",
"     =7eee7=    ",
"      =====     ",
"                "
};
