/* XPM */
static char *_b1b7dabb5aa4d51df98343671ae2f37aCbMIQUXiboaorMo[] = {
/* columns rows colors chars-per-pixel */
"22 23 246 2 ",
"   c black",
".  c #3C894E",
"X  c #3F8E4E",
"o  c #245D44",
"O  c #286647",
"+  c #235D44",
"@  c #235C43",
"#  c #235B43",
"$  c #225B44",
"%  c #235C44",
"&  c #235D45",
"*  c #255E44",
"=  c #266246",
"-  c #276246",
";  c #163D3E",
":  c #18403E",
">  c #18413F",
",  c #153C3E",
"<  c #153A3E",
"1  c #163C3E",
"2  c #163B3C",
"3  c #15393C",
"4  c #153A3C",
"5  c #142F30",
"6  c #39854D",
"7  c #408C51",
"8  c #589C5E",
"9  c #589B5E",
"0  c #39864D",
"q  c #3D8E51",
"w  c #3E8C4E",
"e  c #4BA253",
"r  c #4BA252",
"t  c #3E8E51",
"y  c #15423F",
"u  c #3B854B",
"i  c #13423F",
"p  c #00001B",
"a  c #276445",
"s  c #276446",
"d  c #000023",
"f  c #235B44",
"g  c #2E7048",
"h  c #245C44",
"j  c #255F44",
"k  c #225B44",
"l  c #28613E",
"z  c #225C44",
"x  c #215943",
"c  c #215A44",
"v  c #153B3D",
"b  c None",
"n  c #2C6A47",
"m  c #153C3D",
"M  c #102F3C",
"N  c #18433F",
"B  c #102E3C",
"V  c #11323C",
"C  c #1A4740",
"Z  c #12333C",
"A  c #0E2C3B",
"S  c #18433F",
"D  c #19443F",
"F  c #0F2E3B",
"G  c #12313C",
"H  c #19443F",
"J  c #205543",
"K  c #19433F",
"L  c #0B2339",
"P  c #19443F",
"I  c #18433F",
"U  c #092039",
"Y  c #12313A",
"T  c #18413E",
"R  c #1A483F",
"E  c #1E5642",
"W  c #1E5643",
"Q  c #1B4940",
"!  c #143132",
"~  c #142E2F",
"^  c #122E30",
"/  c #182E33",
"(  c #42433F",
")  c #42423F",
"_  c #142F30",
"`  c #142F30",
"'  c #142E30",
"]  c #613D3B",
"[  c #603C3A",
"{  c #142E2F",
"}  c #142F30",
"|  c #142F30",
" . c #1E3232",
".. c #744640",
"X. c #74453F",
"o. c #1E3332",
"O. c #152F30",
"+. c #28282F",
"@. c #422C32",
"#. c #402831",
"$. c #412831",
"%. c #432C32",
"&. c #142F30",
"*. c #142F30",
"=. c #142F30",
"-. c #103030",
";. c #142D2F",
":. c #20292F",
">. c #573235",
",. c #21292F",
"<. c #142F30",
"1. c #0F2F30",
"2. c #3B3534",
"3. c #6E3C39",
"4. c #142F30",
"5. c #0F2E30",
"6. c #273232",
"7. c #142F30",
"8. c #142F30",
"9. c #142F30",
"0. c #132F30",
"q. c #60A163",
"w. c #5FA163",
"e. c #6EB369",
"r. c #94C281",
"t. c #9CC886",
"y. c #4FA54F",
"u. c #5FC459",
"i. c #6CC962",
"p. c #87C877",
"a. c #89C778",
"s. c #88C777",
"d. c #5FC359",
"f. c #428F4B",
"g. c #51A74D",
"h. c #55B256",
"j. c #5FC45A",
"k. c #62C85B",
"l. c #62C95B",
"z. c #61C85A",
"x. c #60C45A",
"c. c #51A64D",
"v. c #47984D",
"b. c #52A74C",
"n. c #4B9E4E",
"m. c #4A9E50",
"M. c #5CBC56",
"N. c #59B857",
"B. c #5BBC56",
"V. c #37804C",
"C. c #41914E",
"Z. c #4FA24D",
"A. c #53A74C",
"S. c #52A64C",
"D. c #4C9E4D",
"F. c #53A84C",
"G. c #4FA24C",
"H. c #347643",
"J. c #3B874D",
"K. c #41904E",
"L. c #4C9F4D",
"P. c #51A54C",
"I. c #51A64C",
"U. c #4EA14C",
"Y. c #4DA14D",
"T. c #337643",
"R. c #2D6C44",
"E. c #377C46",
"W. c #3A864C",
"Q. c #39844A",
"!. c #3C894D",
"~. c #43934D",
"^. c #44944D",
"/. c #3E8C4E",
"(. c #44944E",
"). c #43934E",
"_. c #3C894E",
"`. c #3A854B",
"'. c #367C46",
"]. c #2D6D44",
"[. c #3D8C4F",
"{. c #327240",
"}. c #377E47",
"|. c #3C8A4E",
" X c #3B884D",
".X c #3B864C",
"XX c #276245",
"oX c #3A854D",
"OX c #388048",
"+X c #3C8B4E",
"@X c #316F3E",
"#X c #39854C",
"$X c #235C43",
"%X c #235A3E",
"&X c #2E6D44",
"*X c #3D8A4E",
"=X c #3D8B4E",
"-X c #337441",
";X c #327441",
":X c #3C884C",
">X c #235C44",
",X c #205442",
"<X c #225940",
"1X c #2C6B46",
"2X c #39844D",
"3X c #39834C",
"4X c #307246",
"5X c #317547",
"6X c #39834B",
"7X c #39854D",
"8X c #286446",
"9X c #276345",
"0X c #21563E",
"qX c #2D6D45",
"wX c #21573E",
"eX c #286345",
"rX c #2F7249",
"tX c #2F7149",
"yX c #235D44",
"uX c #1D5543",
"iX c #1E5343",
"pX c #235B44",
"aX c #4B443F",
"sX c #32403D",
"dX c #1C4C41",
"fX c #32403E",
"gX c #4C4440",
"hX c #9F5B4A",
"jX c #884840",
"kX c #673938",
"lX c #5A3B3A",
"zX c #5A3C3B",
"xX c #673A39",
"cX c #894940",
"vX c #6F3C3A",
"bX c #603436",
"nX c #573034",
"mX c #8D4B41",
"MX c #613537",
"NX c #6F3B3A",
"BX c #532F34",
"VX c #A15B4A",
"CX c #A15B49",
"ZX c #532E34",
"AX c #793F3B",
"SX c white",
/* pixels */
"        . . X 6 7 8 q.w.9 7 0 X . .         ",
"      o O q w e e.r.t.t.r.e.r w t O +       ",
"    @ # y u y.u.i.p.a.s.p.i.d.y.u i $ %     ",
"    & p a f.g.h.j.k.l.l.z.x.h.c.f.s d *     ",
"  @ % f g v.b.n.m.M.N.N.B.m.n.b.v.g h o @   ",
"  @ = j V.C.Z.A.S.b.D.D.b.S.F.G.C.V.j - @   ",
"  @ k l H.J.K.L.P.I.U.Y.P.P.D.K.J.T.l z @   ",
"  # x R.E.W.Q.!.~.^././.(.)._.Q.`.'.].c %   ",
"; : v b [.!.{.}.|. XW..X X|.}.{._.[.n m > ; ",
"; M N XXoX X'.OX+XOX@X@XOX|.OX'. X#XXXN B ; ",
"; V C $X%X&X X*X=X X-X;X:X=X|.J.&X%X>XC Z ; ",
", A S ,X<X1X2X3X4X5XW.W.5X4X6X7X1X<X,XD F ; ",
", < G H J >X8X9X0XqX X XqXwXeX8X>XJ K G < ; ",
"  1 < L P J >X>X>XXXrXtXXXyX>X>XJ I U < 1   ",
"    2 3 Y T R E uXiXpXpXiXuXW Q T Y 3 4     ",
"    5 ! ~ ^ / ( aXsXdXdXfXgX) / ^ ~ ! 5     ",
"    5 _ ` ' ] hXjXkXlXzXxXcXhX[ { ` _ 5     ",
"    5 } |  ...vXbXnXmXmXnXMXNXX.o.| } 5     ",
"    5 } | O.+.@.#.BXVXCXZX$.%.+.O.| } 5     ",
"    5 &.*.=.-.;.:.>.AXAX>.,.' -.=.*.&.5     ",
"    5 5 <.*.| =.1.2.3.3.2.1.=.| *.<.5 5     ",
"    5 5 5 &.4.=.=.5.6.6.5.=.=.4.&.5 5 5     ",
"      5 5 5 7.8.9.| 0.0.| 9.8.7.5 5 5       "
};
