/* XPM */
static char *ddfcc88c6d9743ddc8d14f85360bfb63TZcCvEMOAPqFMkgi[] = {
/* columns rows colors chars-per-pixel */
"16 17 158 2 ",
"   c black",
".  c #387F4A",
"X  c #347A4A",
"o  c #235C43",
"O  c #317448",
"+  c #235C44",
"@  c #225A43",
"#  c #225A44",
"$  c #296746",
"%  c #296747",
"&  c #235D43",
"*  c #225943",
"=  c #18423F",
"-  c #18433F",
";  c #1B4840",
":  c #1B4940",
">  c #1A4640",
",  c #13343D",
"<  c #266745",
"1  c #266646",
"2  c #163C3E",
"3  c #14383E",
"4  c #235A42",
"5  c #245B42",
"6  c #13373E",
"7  c #142E2F",
"8  c #142F30",
"9  c #317D4C",
"0  c #439251",
"q  c #5EA062",
"w  c #429251",
"e  c #327C4C",
"r  c #307248",
"t  c #46984E",
"y  c #59B558",
"u  c #2F7248",
"i  c #15453F",
"p  c #327648",
"a  c #327548",
"s  c #154540",
"d  c #266246",
"f  c #38804B",
"g  c #276346",
"h  c #1F5644",
"j  c #286441",
"k  c #296441",
"l  c #1E5343",
"z  c #2C6A43",
"x  c #2C6B43",
"c  c #1E5443",
"v  c #13393D",
"b  c #2B6847",
"n  c #18433F",
"m  c #18423F",
"M  c #1F5241",
"N  c #194540",
"B  c #205442",
"V  c #1F5342",
"C  c #194440",
"Z  c #19443F",
"A  c #1D4E41",
"S  c None",
"D  c #142E2F",
"F  c #112D2F",
"G  c #203235",
"H  c #4F4941",
"J  c #4F4841",
"K  c #142F30",
"L  c #0A2D2E",
"P  c #66423D",
"I  c #142F30",
"U  c #112F30",
"Y  c #403335",
"T  c #4F2F34",
"R  c #492A32",
"E  c #492B32",
"W  c #142F30",
"Q  c #142F30",
"!  c #0F2E2F",
"~  c #152B2F",
"^  c #3D2D32",
"/  c #753E3B",
"(  c #753E3A",
")  c #162C2F",
"_  c #142F30",
"`  c #142F30",
"'  c #132F30",
"]  c #143030",
"[  c #563837",
"{  c #563836",
"}  c #142F30",
"|  c #142F30",
" . c #142F30",
".. c #0C2E2F",
"X. c #70AC6C",
"o. c #70AB6C",
"O. c #80C473",
"+. c #96C881",
"@. c #95C881",
"#. c #80C372",
"$. c #4DA14D",
"%. c #58B656",
"&. c #63C55C",
"*. c #69C960",
"=. c #68C860",
"-. c #4FA24D",
";. c #4EA14D",
":. c #52AB51",
">. c #55B253",
",. c #388049",
"<. c #44944D",
"1. c #4FA34D",
"2. c #52A64C",
"3. c #4FA24C",
"4. c #4FA34C",
"5. c #387F48",
"6. c #3A854B",
"7. c #3E8C4C",
"8. c #46974D",
"9. c #41914E",
"0. c #46964E",
"q. c #3E8C4D",
"w. c #3D8B4F",
"e. c #367C45",
"r. c #377E47",
"t. c #3B884D",
"y. c #388048",
"u. c #3B884E",
"i. c #367C46",
"p. c #235B43",
"a. c #2E6E45",
"s. c #38814A",
"d. c #3C884D",
"f. c #3C894D",
"g. c #337542",
"h. c #337441",
"j. c #245C41",
"k. c #33794A",
"l. c #367E4B",
"z. c #307346",
"x. c #38824B",
"c. c #367E4A",
"v. c #255F45",
"b. c #255F44",
"n. c #255F42",
"m. c #357D4B",
"M. c #1F5743",
"N. c #245F45",
"B. c #245E45",
"V. c #48433E",
"C. c #294840",
"Z. c #48433F",
"A. c #8A4C42",
"S. c #6D3A39",
"D. c #6D3D3B",
"F. c #6D3E3B",
"G. c #8C4E43",
"H. c white",
/* pixels */
"    . X 9 0 q X.o.q w e X .     ",
"  o O r t y O.+.@.#.y t u O +   ",
"  @ i p $.%.&.*.=.&.%.$.a s #   ",
"o $ d f -.;.:.>.>.:.;.-.f g % o ",
"o h j ,.<.1.2.3.3.2.4.<.,.k h & ",
"* l z 5.6.7.8.9.9.0.q.6.5.x c @ ",
"= v b w.e.r.t.y.y.u.r.i.w.b v - ",
"; n p.a.s.d.f.g.h.f.d.s.a.p.n : ",
"> m M j.k.l.z.x.x.z.c.k.j.M m > ",
", < N B v.b.n.m.m.n.b.v.V C 1 , ",
"2 3 4 Z A S M.N.B.M.S A Z 5 6 2 ",
"  7 D F G H V.C.C.Z.J G F D 7   ",
"  8 K L P A.S.D.F.S.A.P L K 8   ",
"  8 I U Y T R G.G.E T Y U I 8   ",
"  8 W Q ! ~ ^ / ( ^ ) ! Q W 8   ",
"  8 8 _ ` ' ] [ { ] ' ` _ 8 8   ",
"  8 8 8 } |  ..... .| } 8 8 8   "
};
