/* XPM */
static char *_96686a01e4d48dbcb8facf83920ba6e8eCID3dFPkZnnKGG[] = {
/* columns rows colors chars-per-pixel */
"32 34 52 1 ",
"  c None",
". c #153C3D",
"X c #153C3E",
"o c #163C3E",
"O c #163D3E",
"+ c #3E2630",
"@ c #3F2630",
"# c #3F2730",
"$ c #3F2731",
"% c #743C39",
"& c #753C39",
"* c #753C3A",
"= c #753D3A",
"- c #1D4D38",
"; c #1D4D39",
": c #1D4E39",
"> c #21563C",
", c #2C6639",
"< c #2D6639",
"1 c #2D6739",
"2 c #2D673A",
"3 c #1D4D42",
"4 c #235C43",
"5 c #235C44",
"6 c #235D44",
"7 c #245D44",
"8 c #2E6D44",
"9 c #2E6E44",
"0 c #357944",
"q c #31744A",
"w c #31754A",
"e c #BB6D53",
"r c #BC6D53",
"t c #3C894D",
"y c #3C894E",
"u c #3C8A4E",
"i c #3D8A4E",
"p c #47984D",
"a c #52A64C",
"s c #52A74C",
"d c #52A74D",
"f c #53A74D",
"g c #7CB473",
"h c #7CB474",
"j c #61C75A",
"k c #62C75A",
"l c #62C75B",
"z c #62C85B",
"x c #9AC784",
"c c #9AC785",
"v c #9BC785",
"b c #9BC885",
/* pixels */
"             uuuuuu             ",
"           uugcbbchuu           ",
"         uuzcbcccccckuu         ",
"        uazzzcccccczzkau        ",
"       7aazkkzkzkzzkkkaa5       ",
"      4uaauzkzzzzkkkzuaau5      ",
"      7uaaauuzkkzkkuuaaau7      ",
"     5uuaaaaaaauuaaaaaaauu7     ",
"     5uuuaaaaaaaaaaaaaauuu5     ",
"    420uuuaaaaaaaaaaaauuu024    ",
"    5220uuuuaapuupaauuuu0225    ",
"    4uuuu0uuuuuuuuuuuu0uuuu5    ",
"    Ouuuu20uuuuuuuuuu02uuuuO    ",
"    Ouuuu22uuu0000uuu22uuuuO    ",
"   O47uuuuuuuu2222uuuuuuuu45O   ",
"   O77::8uuuuuu22uuuuuu8::55O   ",
"   O45:8uuuuuuuuuuuuuuuu8:77O   ",
"    O5474uu8>>8uu8>>8uu7445O    ",
"     O757757:8uuuu8:775575O     ",
"      O5775575quuq4775775O      ",
"       O5554777755755575O       ",
"        OO455355553557OO        ",
"          OOOO3553OOOO          ",
"          +r**OOOO**e+          ",
"         +ee********re+         ",
"         e***+****+***e         ",
"         ++*++*rr*++*++         ",
"           +++*ee*+++           ",
"             +****+             ",
"              ****              ",
"               **               ",
"                                ",
"                                ",
"                                "
};
